<?xml version="1.0" standalone="no"?>
<!DOCTYPE svg PUBLIC "-//W3C//DTD SVG 20010904//EN"
 "http://www.w3.org/TR/2001/REC-SVG-20010904/DTD/svg10.dtd">
<svg version="1.0" xmlns="http://www.w3.org/2000/svg"
 width="520.000000pt" height="520.000000pt" viewBox="0 0 520.000000 520.000000"
 preserveAspectRatio="xMidYMid meet">
<metadata>
Created by potrace 1.11, written by Peter Selinger 2001-2013
</metadata>
<g transform="translate(0.000000,520.000000) scale(0.100000,-0.100000)"
fill="#000000" stroke="none">
<path d="M2435 5100 c1 -27 4 -52 8 -56 4 -4 2 -13 -4 -21 -9 -10 -8 -13 2
-13 11 0 11 -2 -1 -10 -11 -7 -11 -10 -2 -10 8 0 10 -5 6 -12 -13 -21 -11 -48
3 -48 11 0 11 -4 -3 -17 -15 -16 -15 -17 2 -23 17 -6 17 -7 -1 -14 -14 -5 -16
-9 -7 -18 15 -15 16 -32 2 -23 -13 8 -8 -18 5 -27 6 -5 4 -8 -5 -8 -13 0 -13
-1 0 -10 11 -7 11 -10 2 -10 -7 0 -10 -4 -7 -10 3 -5 1 -10 -6 -10 -9 0 -9 -3
0 -14 9 -11 9 -16 0 -22 -8 -5 -10 -3 -5 7 4 8 0 5 -8 -5 -11 -14 -13 -23 -5
-32 7 -8 6 -14 -2 -20 -8 -5 -10 -3 -4 7 5 8 4 11 -1 6 -12 -12 -12 -30 1 -39
6 -5 3 -8 -7 -8 -10 0 -15 -5 -12 -13 3 -8 -2 -20 -11 -27 -12 -10 -13 -16 -3
-27 10 -12 9 -17 -2 -27 -8 -6 -16 -18 -18 -26 -2 -8 -8 -18 -14 -21 -6 -4 -5
-9 3 -12 10 -4 10 -6 2 -6 -7 -1 -13 -13 -13 -27 0 -14 -4 -23 -10 -19 -6 4
-10 -5 -10 -20 0 -18 -4 -24 -12 -19 -8 5 -7 0 2 -11 9 -11 10 -16 3 -11 -7 4
-13 2 -13 -3 0 -22 -2 -26 -16 -34 -8 -4 -14 -13 -14 -20 0 -8 4 -6 11 3 9 12
10 12 5 -3 -3 -10 -6 -21 -6 -23 0 -3 -5 -2 -12 2 -8 5 -9 2 -5 -9 3 -10 2
-17 -4 -17 -6 0 -7 -4 -4 -10 3 -5 -1 -10 -9 -10 -8 0 -18 -9 -21 -20 -4 -11
-11 -17 -17 -14 -6 4 -6 -2 1 -15 9 -17 9 -20 -3 -15 -8 3 -17 0 -22 -7 -5 -8
-3 -10 7 -5 8 4 6 1 -3 -7 -10 -8 -15 -17 -11 -20 3 -4 1 -7 -6 -7 -7 0 -9 -4
-6 -10 3 -5 0 -7 -8 -4 -8 3 -18 0 -23 -7 -4 -8 -3 -10 4 -5 28 17 8 -11 -25
-37 -25 -19 -39 -24 -44 -16 -4 6 -12 8 -19 4 -8 -5 -11 -4 -6 3 3 6 2 14 -4
17 -6 4 -9 1 -8 -7 2 -7 -3 -12 -11 -10 -12 3 -12 0 -1 -12 7 -9 8 -16 3 -16
-5 0 -9 -10 -8 -22 1 -13 -3 -26 -9 -30 -7 -5 -6 -8 4 -8 13 0 13 -1 0 -10
-13 -9 -13 -10 0 -10 13 0 13 -1 0 -10 -13 -9 -13 -10 0 -10 10 0 11 -3 3 -8
-6 -4 -13 -22 -16 -40 -3 -17 -2 -30 2 -27 4 2 8 -2 8 -10 0 -8 -5 -11 -10 -8
-6 4 -8 0 -4 -9 3 -9 0 -21 -6 -28 -9 -10 -9 -11 1 -6 15 9 16 -6 0 -22 -9 -9
-9 -12 0 -12 9 0 9 -5 0 -20 -11 -17 -10 -22 2 -30 13 -8 13 -10 -2 -10 -14 0
-15 -5 -8 -29 6 -23 5 -31 -8 -36 -11 -4 -12 -9 -4 -17 11 -11 5 -41 -7 -33
-4 2 -8 -2 -8 -10 0 -8 4 -12 9 -9 13 9 9 0 -17 -36 -14 -19 -25 -30 -25 -24
0 5 -5 2 -10 -7 -5 -9 -19 -15 -32 -13 -13 1 -29 3 -36 3 -7 1 -10 5 -7 11 3
5 -7 13 -22 16 -15 4 -34 15 -43 24 -12 12 -13 12 -5 0 9 -13 8 -13 -7 -1 -10
7 -18 21 -19 30 0 11 -2 12 -6 3 -3 -9 -11 -4 -24 17 -12 21 -24 29 -38 26
-14 -2 -18 1 -14 11 3 9 -2 14 -17 14 -17 0 -21 4 -16 17 4 10 4 14 0 11 -10
-11 -46 11 -38 23 4 7 -1 7 -15 0 -26 -14 -27 -31 -3 -32 14 0 14 -2 -3 -9
-11 -5 -15 -9 -8 -9 7 -1 10 -8 6 -18 -5 -13 -2 -15 11 -10 12 5 15 3 9 -6
-12 -19 -12 -36 -1 -44 7 -4 8 -1 3 7 -5 9 -4 11 4 6 9 -6 9 -11 0 -22 -8 -10
-8 -14 0 -14 6 0 11 -9 11 -20 0 -11 5 -20 10 -20 6 0 10 -5 10 -11 0 -5 -6
-7 -12 -3 -7 4 -4 -3 7 -16 11 -13 14 -20 8 -16 -9 5 -11 2 -7 -8 3 -9 10 -13
15 -10 13 8 11 -10 -3 -24 -8 -8 -9 -12 -1 -12 15 0 21 -29 12 -62 -4 -15 -3
-30 2 -34 5 -3 7 -10 4 -15 -4 -5 2 -9 12 -9 17 -1 17 -1 0 -11 -12 -7 -15
-15 -9 -22 5 -7 10 -32 11 -56 0 -25 7 -48 14 -53 9 -6 9 -10 -3 -18 -13 -9
-13 -11 0 -20 13 -9 13 -10 0 -10 -13 0 -13 -1 0 -10 11 -7 12 -10 2 -10 -10
0 -10 -4 2 -16 18 -17 21 -28 6 -19 -14 9 -13 -8 2 -23 7 -7 8 -12 2 -12 -16
0 -10 -70 6 -80 13 -9 13 -10 0 -10 -13 0 -13 -1 0 -10 13 -9 13 -10 0 -10
-13 0 -13 -1 0 -10 12 -8 12 -10 -3 -16 -9 -3 -17 -10 -17 -16 0 -5 4 -7 9 -3
5 3 12 1 16 -5 3 -5 -1 -10 -10 -10 -13 0 -14 -4 -5 -20 8 -14 8 -20 0 -20 -6
0 -8 -5 -5 -11 4 -6 -3 -13 -15 -16 -12 -3 -19 -11 -16 -19 3 -8 0 -11 -9 -8
-21 8 -41 -6 -24 -17 10 -6 10 -9 2 -9 -7 0 -17 8 -22 18 -10 16 -10 16 -11 0
0 -11 -5 -15 -15 -12 -8 4 -22 1 -29 -5 -11 -9 -16 -9 -22 0 -5 8 -3 9 6 4 9
-5 11 -4 6 4 -6 9 -11 9 -22 0 -11 -9 -15 -8 -20 5 -3 9 -15 16 -25 16 -10 0
-19 5 -19 11 0 5 -4 8 -9 5 -5 -4 -11 -3 -13 1 -2 5 -18 22 -37 38 -19 17 -31
24 -27 18 12 -21 0 -15 -34 17 -18 17 -38 30 -46 30 -8 0 -14 5 -14 10 0 6 -8
10 -17 10 -9 0 -14 3 -10 6 3 3 -6 16 -21 29 -21 18 -30 21 -41 12 -12 -9 -13
-9 -7 1 4 7 2 12 -4 12 -6 0 -8 5 -5 10 3 6 0 11 -7 12 -44 5 -69 18 -61 32 4
6 -1 5 -11 -3 -9 -8 -16 -10 -15 -5 4 21 -2 24 -23 13 -21 -11 -22 -11 -9 4
12 15 11 17 -13 17 -14 0 -26 5 -26 10 0 6 -9 10 -20 10 -11 0 -20 -6 -20 -12
0 -9 -4 -8 -10 2 -9 14 -15 7 -11 -14 1 -5 -5 -4 -13 4 -13 10 -16 10 -16 0 0
-7 -8 -10 -20 -7 -11 3 -27 -1 -35 -10 -9 -9 -15 -10 -15 -3 0 7 -7 5 -16 -4
-14 -14 -34 -14 -34 0 0 3 5 2 12 -2 7 -5 8 -3 4 5 -5 7 -14 10 -22 7 -8 -3
-14 0 -14 6 0 6 -6 5 -17 -3 -11 -10 -14 -10 -9 -1 4 7 1 12 -8 12 -9 0 -16 6
-16 13 0 9 -2 9 -9 -1 -7 -11 -9 -11 -14 2 -4 9 -11 16 -17 16 -6 0 -8 -6 -4
-12 4 -7 -3 -4 -16 7 -13 11 -20 14 -16 7 7 -11 4 -11 -13 0 -12 7 -21 17 -21
23 0 5 -5 3 -10 -5 -7 -11 -10 -11 -10 -2 0 7 -4 11 -9 7 -5 -3 -15 0 -23 7
-17 16 -42 22 -33 8 3 -5 1 -10 -4 -10 -6 0 -11 8 -11 18 0 14 -2 15 -10 2 -8
-12 -10 -12 -11 5 0 11 -3 14 -6 8 -3 -10 -8 -9 -20 2 -8 8 -19 13 -24 10 -5
-4 -9 -1 -9 4 0 6 -9 11 -21 11 -13 0 -18 4 -13 13 5 8 2 8 -9 -2 -15 -12 -17
-11 -17 5 0 14 -2 16 -9 6 -6 -11 -10 -10 -15 3 -5 14 -9 15 -21 5 -12 -10
-15 -9 -15 3 0 10 -6 14 -15 11 -9 -4 -18 1 -22 12 -6 16 -7 16 -14 -2 -7 -17
-8 -17 -8 4 -1 12 -6 22 -12 22 -5 0 -7 -5 -3 -11 5 -8 1 -8 -14 0 -12 6 -24
16 -27 21 -4 6 -10 8 -15 5 -5 -3 -11 -1 -15 5 -3 5 -11 10 -18 10 -6 0 -2 -6
8 -14 11 -8 23 -12 27 -10 5 3 8 -4 8 -16 0 -12 5 -18 10 -15 6 4 10 -7 10
-24 0 -17 5 -31 12 -31 6 0 8 -3 5 -7 -4 -3 1 -12 11 -20 9 -8 11 -12 5 -8 -7
3 -13 1 -13 -4 0 -6 5 -11 11 -11 6 0 8 -7 5 -16 -6 -15 -4 -15 11 -3 15 12
16 12 11 -2 -4 -9 -1 -22 5 -29 9 -10 9 -11 -1 -6 -7 4 -4 -7 7 -25 11 -18 17
-37 14 -42 -3 -6 -1 -7 5 -3 8 5 12 0 12 -13 0 -12 4 -21 10 -21 5 0 6 -7 3
-17 -4 -10 -2 -14 5 -9 6 3 13 2 17 -4 3 -5 1 -10 -5 -10 -7 0 -5 -7 4 -16 19
-19 21 -28 3 -18 -9 6 -9 4 1 -8 10 -13 10 -17 0 -21 -7 -3 -4 -6 7 -6 17 -1
17 -3 5 -11 -8 -5 -10 -10 -4 -10 7 0 15 -7 18 -16 3 -8 2 -12 -4 -9 -16 10
-12 -7 7 -27 16 -18 16 -19 -3 -13 -19 7 -19 6 0 -9 17 -13 17 -18 5 -33 -12
-15 -12 -16 3 -10 10 3 20 1 24 -5 4 -6 3 -8 -4 -4 -7 4 -10 -4 -10 -24 1 -16
5 -30 10 -30 5 0 8 -8 7 -17 -3 -31 1 -44 10 -38 10 6 7 -27 -4 -44 -3 -5 -1
-12 4 -15 4 -3 9 -17 9 -32 0 -14 5 -30 13 -34 10 -7 10 -11 0 -24 -11 -13
-11 -16 1 -16 11 0 14 -7 10 -26 -4 -20 -2 -25 8 -19 9 6 10 4 3 -9 -10 -18 5
-86 19 -86 5 0 8 -5 8 -11 0 -5 -6 -7 -12 -3 -8 5 -7 0 2 -10 8 -10 15 -24 16
-30 3 -33 5 -37 12 -33 4 3 7 -8 8 -24 1 -15 -3 -26 -7 -23 -4 2 -6 -6 -3 -18
5 -22 7 -70 5 -111 -1 -12 -5 -16 -13 -11 -8 5 -7 0 2 -11 8 -10 10 -16 3 -12
-7 4 -17 0 -23 -10 -10 -16 -11 -16 -6 -1 3 11 1 15 -8 12 -7 -3 -13 -17 -13
-32 0 -15 -4 -36 -8 -47 -5 -13 -4 -16 2 -7 7 10 14 7 28 -12 10 -14 22 -23
27 -20 4 3 8 -2 8 -10 0 -9 5 -16 11 -16 5 0 7 6 3 13 -6 9 -4 9 8 -1 9 -7 15
-21 13 -30 -3 -22 14 -44 28 -35 6 3 7 1 3 -5 -4 -7 -3 -12 2 -12 6 0 13 -7
16 -16 5 -12 3 -14 -7 -8 -7 5 -6 2 3 -6 9 -9 15 -21 12 -28 -2 -8 2 -10 14
-5 11 4 15 3 11 -5 -10 -16 14 -62 32 -62 14 0 14 -2 1 -10 -10 -6 -11 -10 -2
-10 6 0 12 -7 12 -15 0 -8 5 -15 10 -15 6 0 10 -5 10 -11 0 -5 -6 -7 -12 -3
-9 5 -9 2 1 -9 11 -14 11 -20 1 -32 -7 -8 -17 -12 -23 -8 -6 4 -8 0 -4 -11 4
-9 3 -14 -2 -11 -5 3 -16 -4 -24 -15 -7 -11 -16 -17 -19 -14 -4 3 -14 -8 -24
-25 -10 -17 -23 -31 -28 -31 -5 0 -1 10 10 23 l19 22 -22 -19 c-12 -10 -25
-27 -28 -36 -3 -10 -13 -21 -22 -24 -14 -6 -14 -4 -2 11 13 16 12 17 -4 4 -10
-8 -16 -20 -13 -28 3 -8 1 -11 -4 -8 -6 3 -10 1 -10 -4 0 -6 -7 -11 -15 -11
-8 0 -15 -7 -15 -16 0 -8 -4 -12 -10 -9 -5 3 -10 1 -10 -5 0 -7 -7 -9 -16 -6
-9 3 -12 2 -9 -5 4 -6 1 -10 -6 -8 -28 3 -40 -1 -33 -13 6 -10 4 -10 -6 -1
-11 10 -18 9 -36 -8 -14 -13 -24 -17 -29 -10 -3 6 -11 11 -16 11 -6 0 -8 -4
-5 -8 2 -4 -4 -8 -15 -8 -10 0 -19 3 -19 6 0 4 -7 7 -15 7 -8 0 -12 -4 -9 -8
2 -4 0 -11 -6 -14 -6 -4 -9 -1 -8 5 2 7 -5 14 -14 15 -10 2 -18 -1 -18 -6 0
-6 -6 -7 -13 -2 -6 4 -21 9 -32 10 -16 3 -17 1 -5 -7 8 -5 10 -10 4 -10 -5 0
-15 5 -21 11 -7 7 -12 6 -16 -5 -5 -12 0 -16 21 -16 19 0 23 -3 13 -9 -10 -6
-5 -11 20 -17 19 -4 38 -7 43 -5 5 1 6 -6 2 -15 -5 -14 -4 -15 9 -4 12 10 15
10 15 -3 0 -8 7 -18 16 -21 8 -3 13 -2 10 2 -2 4 4 8 14 8 15 0 16 -3 8 -14
-6 -7 -7 -12 -2 -11 22 4 35 -2 28 -13 -5 -10 -4 -10 7 0 11 10 16 8 26 -10 7
-13 12 -17 13 -10 0 6 5 12 11 12 5 0 7 -4 4 -10 -3 -5 -1 -18 5 -27 11 -17
11 -17 6 -1 -3 10 -1 18 4 18 6 0 10 -9 10 -20 0 -12 7 -20 18 -20 9 0 26 -7
36 -15 10 -8 23 -12 29 -8 6 3 7 1 3 -5 -11 -19 3 -35 19 -22 10 8 15 8 21 -1
5 -8 3 -9 -6 -4 -9 6 -11 4 -6 -4 5 -7 14 -10 21 -7 8 3 19 -2 25 -9 7 -8 17
-12 23 -8 6 4 8 0 4 -11 -4 -10 -3 -15 3 -11 6 3 10 2 10 -3 0 -6 7 -13 16
-16 12 -5 14 -3 8 7 -5 7 2 1 15 -13 13 -14 20 -18 16 -10 -4 8 2 4 13 -9 10
-13 24 -21 29 -18 6 4 17 -1 24 -10 12 -14 12 -16 -1 -9 -8 4 -7 1 3 -7 10 -8
17 -19 16 -23 -1 -5 0 -12 1 -16 1 -5 3 -11 4 -15 7 -28 19 -53 26 -53 4 0 10
-7 13 -14 4 -11 1 -13 -11 -9 -11 4 -10 0 5 -11 15 -11 19 -23 16 -37 -4 -15
-2 -20 5 -15 7 4 9 -2 6 -20 -3 -16 1 -33 12 -45 9 -10 13 -23 9 -28 -3 -6 -1
-11 4 -11 6 0 11 -5 11 -11 0 -5 -6 -7 -12 -3 -10 6 -10 4 0 -8 9 -11 10 -18
2 -23 -6 -3 -7 -11 -4 -17 4 -7 2 -8 -5 -4 -6 4 -14 0 -17 -8 -3 -9 -10 -13
-15 -10 -5 3 -6 -2 -3 -10 4 -11 0 -16 -11 -16 -10 0 -13 -5 -9 -12 5 -7 2 -9
-9 -5 -11 4 -14 2 -10 -9 3 -9 0 -14 -8 -12 -8 2 -13 -3 -12 -9 2 -7 -2 -13
-8 -13 -6 0 -17 -6 -24 -14 -11 -10 -11 -16 -2 -25 9 -9 8 -11 -5 -6 -9 4 -25
2 -35 -5 -16 -9 -15 -10 7 -5 24 6 24 5 -2 -10 -16 -9 -28 -23 -28 -32 0 -9 3
-13 7 -10 3 4 12 2 19 -4 9 -7 19 -7 33 1 16 8 21 8 21 -1 0 -8 5 -7 17 2 9 8
14 9 10 3 -7 -12 61 -12 81 0 7 4 12 2 12 -4 0 -8 6 -8 20 0 15 8 20 8 20 -1
0 -8 5 -7 17 2 9 8 14 9 10 3 -7 -12 61 -12 81 0 7 4 12 3 12 -2 0 -10 36 -9
46 1 4 4 13 2 21 -4 10 -9 17 -8 28 1 12 10 15 10 15 0 0 -9 3 -10 13 -1 10 8
17 7 25 -1 8 -8 15 -8 27 2 8 7 15 8 15 3 0 -6 17 -9 38 -7 20 2 37 3 37 4 0
1 10 3 22 4 13 2 19 -2 16 -7 -4 -6 0 -8 10 -4 11 4 17 1 17 -8 0 -14 12 -20
33 -16 5 1 6 -3 2 -9 -3 -5 1 -10 9 -10 10 0 13 -6 9 -17 -4 -9 -2 -14 3 -10
8 5 9 -10 5 -56 -1 -5 -7 -5 -13 -1 -8 5 -7 0 2 -11 12 -15 12 -17 1 -10 -11
6 -13 4 -8 -8 3 -10 2 -17 -4 -17 -6 0 -5 -8 2 -21 6 -12 7 -19 1 -15 -5 3
-13 -1 -16 -10 -4 -10 -2 -13 7 -8 8 5 7 2 -2 -9 -7 -9 -10 -17 -5 -17 5 0 3
-4 -5 -9 -9 -6 -10 -11 -2 -15 6 -4 11 -2 11 3 0 6 7 11 16 11 8 0 12 4 9 10
-3 5 -1 10 5 10 6 0 8 5 4 13 -6 9 -4 9 8 -1 18 -14 34 0 22 19 -4 7 1 7 16
-1 18 -10 21 -9 15 1 -6 9 -3 11 9 6 10 -4 15 -3 11 3 -3 6 -1 10 5 10 6 0 8
4 5 10 -3 6 1 7 9 4 9 -4 18 1 22 10 3 9 11 13 17 9 6 -4 8 0 4 11 -4 10 -3
15 3 11 11 -7 50 16 50 29 0 5 -10 1 -22 -10 l-23 -19 19 22 c10 13 23 20 27
17 5 -3 12 2 15 10 3 9 13 16 21 16 8 0 11 4 8 10 -3 6 1 7 9 4 9 -4 18 1 22
10 3 9 10 16 16 16 5 0 6 -5 2 -12 -4 -7 -3 -8 5 -4 6 4 9 11 6 16 -3 4 5 10
16 13 12 3 18 10 14 16 -3 6 0 9 8 5 8 -3 17 2 21 11 3 9 11 13 18 9 8 -5 9
-2 4 11 -6 16 -4 16 11 4 10 -8 14 -9 10 -2 -9 14 26 36 39 25 5 -4 2 1 -5 11
-12 15 -12 17 0 12 8 -2 25 5 39 16 14 11 19 17 11 13 -9 -5 -12 -3 -7 4 4 7
14 12 23 12 9 0 13 6 10 14 -4 11 -1 13 11 9 15 -6 15 -5 3 11 -8 9 -10 16 -5
15 21 -4 34 2 34 14 0 15 36 48 44 40 6 -6 10 12 7 29 0 4 6 5 14 2 7 -3 19 3
26 14 7 12 19 18 27 14 10 -3 13 -1 8 6 -3 6 -2 13 4 17 5 3 10 1 10 -5 0 -7
5 -6 14 2 8 7 12 16 10 20 -2 3 6 4 18 1 19 -4 20 -3 8 6 -13 9 -13 11 3 11 9
0 17 4 17 9 0 5 8 8 18 7 9 0 16 5 14 12 -1 8 2 11 8 7 6 -4 17 -1 25 5 8 6
19 9 25 5 5 -3 10 -1 10 5 0 6 5 8 10 5 6 -4 18 -1 27 7 14 11 16 11 8 -2 -5
-9 1 -7 15 5 13 11 20 15 17 8 -8 -14 30 -5 39 9 3 5 11 4 19 -2 10 -8 15 -8
20 0 5 8 11 7 23 -2 13 -11 14 -11 7 2 -8 13 -7 13 8 1 9 -7 17 -9 17 -4 0 5
7 10 15 10 8 0 12 -4 10 -8 -3 -3 6 -9 20 -11 13 -3 22 -1 19 3 -3 5 0 9 5 9
6 0 11 -6 12 -12 0 -7 4 -4 9 7 7 17 9 17 9 3 1 -21 12 -23 30 -6 10 11 12 10
9 -1 -2 -7 7 -15 20 -17 13 -2 22 1 22 9 0 8 3 7 9 -3 6 -8 7 -18 4 -23 -3 -4
2 -16 10 -25 17 -20 28 -60 17 -64 -4 -2 -4 -29 0 -60 4 -38 2 -58 -4 -58 -6
0 -4 -5 4 -10 23 -15 29 -12 22 12 -3 12 -1 19 5 15 5 -3 10 0 10 8 0 8 -5 12
-11 9 -6 -3 -3 1 6 9 10 8 15 17 11 20 -3 4 -1 7 5 7 7 0 17 20 23 45 6 25 15
45 20 45 5 0 9 5 9 11 0 5 -6 7 -12 4 -7 -4 -5 0 5 8 10 9 18 19 17 23 -1 8
15 12 60 15 39 2 52 0 47 -8 -3 -5 6 -9 19 -9 15 -1 21 2 17 10 -4 6 0 5 9 -2
12 -9 18 -10 23 -2 5 8 11 5 21 -7 13 -17 13 -17 14 0 0 10 5 15 10 12 6 -4 7
-11 4 -17 -5 -7 -1 -9 9 -5 10 3 17 2 17 -3 0 -6 3 -9 8 -8 14 3 42 -14 36
-23 -3 -5 2 -6 10 -3 8 3 25 -4 37 -15 13 -12 31 -21 41 -21 10 0 18 -5 18
-11 0 -5 5 -7 10 -4 6 3 10 -1 10 -9 0 -9 5 -16 11 -16 5 0 7 -6 3 -13 -6 -9
-4 -9 7 1 19 18 28 15 24 -9 -4 -18 -2 -19 13 -8 9 7 14 9 10 5 -9 -11 91
-116 110 -116 7 0 10 -4 7 -10 -3 -5 1 -10 9 -10 9 0 16 -6 16 -13 0 -8 12
-24 28 -38 l27 -24 -25 30 -25 30 25 -20 c14 -11 26 -21 28 -21 2 -1 5 -10 6
-21 2 -10 10 -17 20 -15 9 2 16 -4 16 -13 0 -8 5 -15 11 -15 5 0 7 5 3 12 -4
7 -3 8 5 4 6 -4 9 -11 6 -16 -3 -5 4 -14 15 -20 11 -6 20 -8 20 -5 0 3 6 0 14
-7 8 -7 12 -16 9 -20 -7 -13 12 -9 26 5 10 8 12 9 7 0 -8 -14 27 -36 39 -25 5
4 5 1 1 -6 -4 -7 0 -15 11 -19 10 -4 20 -9 23 -13 7 -8 64 -44 73 -46 4 -1 10
-3 15 -4 4 -1 10 -2 15 -1 4 0 7 -4 7 -10 0 -5 4 -8 9 -5 5 3 11 -3 14 -14 3
-11 9 -20 14 -19 24 4 43 -3 43 -16 0 -18 16 -20 26 -3 4 7 3 8 -4 4 -7 -4
-12 -3 -12 3 0 5 6 12 13 14 9 4 9 6 0 6 -7 1 -10 8 -6 16 3 9 -2 22 -12 29
-14 10 -15 15 -5 21 9 6 11 4 5 -5 -5 -8 -4 -11 2 -7 11 7 11 56 0 74 -4 6 -1
14 5 16 10 4 9 8 -2 16 -11 8 -12 11 -2 11 7 0 11 4 8 9 -4 5 4 7 16 3 16 -4
19 -2 13 8 -5 9 -4 11 4 6 22 -14 63 -14 68 0 3 8 9 14 15 14 5 0 6 -6 2 -12
-4 -7 2 -5 13 5 14 13 23 15 28 7 5 -8 10 -8 20 0 8 7 18 9 24 6 5 -4 17 1 25
10 9 8 16 11 16 5 0 -6 5 -11 11 -11 5 0 7 4 4 10 -3 6 1 7 9 4 9 -3 16 -1 16
5 0 6 5 11 11 11 5 0 7 -4 4 -10 -3 -6 1 -7 9 -4 9 3 13 11 9 18 -4 6 0 6 9
-2 13 -10 17 -10 21 0 4 10 8 10 17 -2 9 -11 13 -12 17 -2 2 6 9 12 14 12 6 0
7 -6 4 -13 -4 -6 1 -3 9 7 12 15 16 16 16 5 0 -12 2 -12 9 0 7 11 9 11 14 0 5
-12 6 -12 6 0 1 11 4 11 16 1 10 -8 15 -9 15 -1 0 7 8 8 24 1 13 -5 27 -6 31
-2 3 3 10 0 15 -8 8 -12 10 -12 10 -1 0 11 3 11 17 0 10 -9 14 -9 10 -2 -6 9
-1 10 23 2 16 -6 32 -15 35 -19 3 -4 14 -6 25 -3 11 3 17 10 13 16 -3 6 -1 7
6 3 6 -4 9 -11 6 -16 -3 -4 13 -10 34 -12 22 -2 37 0 35 3 -2 4 2 10 8 12 10
4 10 8 -1 15 -11 8 -11 10 0 15 10 4 10 6 2 6 -7 1 -13 8 -13 16 0 8 -5 15
-11 15 -5 0 -7 5 -4 10 3 6 -1 10 -9 10 -9 0 -17 5 -17 10 -1 6 -3 13 -4 18
-2 4 -6 17 -10 29 -5 15 -13 20 -27 18 -16 -4 -18 -2 -8 10 9 11 9 15 1 15 -6
0 -11 5 -11 10 0 13 -37 50 -43 43 -3 -3 -3 5 0 18 5 18 3 21 -10 16 -11 -4
-14 -2 -10 9 3 7 0 14 -6 14 -6 0 -11 5 -11 11 0 5 5 7 12 3 6 -4 8 -3 4 4 -3
6 -14 9 -24 7 -12 -2 -18 3 -18 15 0 10 4 16 8 14 4 -3 8 -1 8 5 0 5 -6 12
-12 14 -10 4 -10 6 0 6 6 1 12 6 12 12 0 5 -5 7 -10 4 -6 -3 -10 -1 -10 4 0 6
4 11 8 11 5 0 8 18 6 40 -1 22 1 40 5 40 4 0 7 9 7 20 0 14 -5 19 -16 15 -13
-4 -13 -4 0 8 22 18 23 37 2 38 -10 0 -12 3 -4 6 7 2 17 14 23 25 6 11 7 18 2
15 -5 -4 -10 0 -10 8 0 8 4 12 8 9 4 -2 20 8 36 22 15 15 22 24 16 20 -9 -5
-11 -2 -7 8 3 9 9 15 12 14 20 -2 25 3 12 12 -13 8 -13 10 3 11 9 1 22 2 28 3
6 0 16 9 23 18 7 10 17 14 21 10 5 -4 5 2 1 12 -5 15 -4 16 6 8 10 -8 19 -4
36 13 13 14 21 29 18 34 -3 5 2 8 11 6 10 -1 27 6 38 16 11 10 35 31 53 45 20
16 31 33 28 41 -3 8 -2 12 2 10 4 -3 16 5 27 16 11 11 15 17 8 13 -6 -3 -15
-1 -19 5 -4 7 -3 9 3 6 6 -4 19 1 29 9 10 9 13 12 5 8 -9 -4 -12 -3 -7 4 4 6
13 9 21 6 8 -3 25 5 39 19 14 14 28 22 33 18 4 -3 4 -2 0 3 -13 16 -39 16 -33
0 4 -11 1 -11 -18 2 -22 14 -25 14 -35 -3 -6 -10 -11 -13 -11 -7 0 6 -7 11
-15 11 -8 0 -15 -5 -15 -11 0 -6 -4 -5 -9 3 -6 9 -10 10 -16 2 -5 -9 -10 -9
-20 -1 -10 8 -19 8 -36 0 -17 -10 -20 -9 -14 1 6 9 2 11 -13 7 -14 -4 -20 -2
-15 5 4 7 0 8 -11 4 -10 -4 -15 -3 -11 3 3 6 -1 10 -9 10 -9 0 -16 5 -16 11 0
7 -9 9 -21 6 -17 -5 -18 -3 -8 9 10 12 10 15 -2 12 -8 -2 -13 3 -12 10 3 11
-9 16 -29 13 -11 -1 -5 22 7 31 6 5 5 8 -4 8 -11 0 -11 3 0 17 10 11 10 14 2
9 -15 -8 -17 3 -4 24 6 8 7 19 3 25 -11 17 -11 35 0 28 7 -4 9 1 6 15 -4 15
-2 19 8 15 8 -3 14 1 14 8 0 7 3 10 6 7 3 -4 13 1 22 10 10 9 31 27 47 40 17
13 23 20 15 16 -13 -7 -13 -6 -1 10 8 9 21 14 29 11 12 -5 13 -3 2 10 -11 13
-11 16 1 13 8 -2 13 3 11 11 -2 9 3 11 13 7 9 -3 13 -2 10 4 -3 6 -1 10 5 10
6 0 8 5 5 10 -3 6 0 10 7 11 7 0 4 4 -7 9 -18 8 -18 9 -2 9 17 1 17 2 3 17
-17 17 -21 29 -7 20 4 -3 5 12 1 34 -4 22 -3 40 1 40 5 0 9 4 9 10 0 5 -6 8
-12 6 -7 -1 -10 -1 -5 1 4 3 4 10 1 15 -5 7 -2 8 6 3 10 -6 12 -3 8 13 -4 12
-2 20 3 16 7 -4 12 14 8 29 0 1 6 15 15 31 8 16 12 35 9 42 -3 8 0 14 7 14 6
0 8 4 5 10 -3 6 -1 10 5 10 6 0 9 4 6 9 -9 15 5 42 18 34 6 -4 5 1 -3 10 -12
15 -11 17 5 17 16 0 17 2 4 10 -13 9 -13 12 3 21 15 9 16 13 5 27 -8 10 -9 13
-1 9 6 -4 14 -3 18 3 3 5 1 10 -5 10 -6 0 -8 5 -5 10 4 6 12 7 18 3 7 -4 5 2
-3 12 -9 11 -10 16 -2 11 7 -4 12 -2 12 4 0 6 4 9 8 6 5 -3 8 7 7 22 -1 16 5
33 17 42 17 14 24 31 27 63 1 5 5 5 11 2 6 -4 7 1 3 11 -5 13 -3 15 8 9 12 -8
12 -6 0 8 -12 15 -11 17 4 17 15 0 16 2 4 17 -8 9 -9 14 -3 10 13 -8 27 19 18
34 -3 5 0 8 8 7 7 -2 12 5 12 14 -1 10 3 15 9 11 6 -4 8 0 4 10 -4 10 -2 16 6
14 7 -1 11 6 9 17 -3 18 -2 18 14 5 11 -9 15 -9 10 -1 -11 18 2 50 23 57 10 3
18 13 17 23 0 10 5 16 13 14 12 -3 12 -1 0 14 -8 11 -9 15 -2 11 7 -5 21 1 33
13 11 11 17 20 14 20 -3 0 2 8 13 18 10 9 13 13 6 9 -6 -5 -18 -5 -24 -1 -7 4
-10 3 -7 -2 3 -5 0 -15 -8 -22 -11 -10 -14 -10 -14 0 0 6 -7 3 -15 -8 -9 -12
-14 -14 -15 -6 0 7 -5 10 -10 7 -6 -4 -8 -10 -5 -15 3 -5 -6 -7 -21 -4 -16 3
-23 1 -19 -6 4 -6 -5 -10 -20 -10 -18 0 -24 -4 -19 -12 5 -8 0 -7 -11 2 -14
11 -17 12 -11 1 6 -9 5 -12 -5 -9 -8 3 -20 -2 -27 -11 -12 -14 -13 -14 -8 4 6
20 6 20 -9 1 -11 -14 -15 -16 -15 -5 -1 10 -3 9 -11 -3 -5 -10 -15 -18 -22
-18 -7 0 -6 4 3 10 9 6 10 10 3 10 -7 0 -17 -8 -22 -17 -8 -14 -10 -15 -11 -3
0 13 -1 13 -10 0 -7 -11 -10 -11 -10 -2 0 7 -5 10 -10 7 -6 -4 -8 -11 -5 -16
4 -5 -4 -5 -19 1 -22 8 -26 7 -26 -8 0 -12 -3 -13 -8 -5 -4 7 -17 11 -29 10
-12 0 -20 -4 -17 -8 2 -4 0 -11 -6 -14 -6 -4 -9 -1 -8 5 2 7 -5 14 -15 15 -13
2 -17 -1 -13 -11 5 -12 2 -12 -15 -3 -17 8 -25 7 -42 -8 -13 -12 -18 -13 -12
-3 8 13 7 13 -8 1 -9 -7 -17 -10 -17 -5 0 4 -7 -1 -16 -12 -8 -10 -13 -13 -9
-6 7 14 -11 17 -20 2 -3 -5 -12 -10 -18 -10 -7 0 -6 4 3 10 8 5 10 10 4 10 -6
0 -14 -3 -18 -7 -8 -8 -13 -9 -42 -12 -8 0 -13 -5 -10 -9 8 -13 -27 -11 -43 2
-11 8 -13 8 -7 -1 4 -7 2 -13 -3 -13 -6 0 -11 7 -11 15 0 9 -6 12 -16 8 -8 -3
-13 -12 -10 -19 3 -9 0 -11 -11 -7 -9 4 -14 2 -10 -3 3 -5 -3 -10 -14 -10 -10
0 -19 4 -19 8 0 4 -5 8 -11 8 -5 0 -8 -4 -5 -8 6 -11 -25 -9 -43 3 -10 5 -12
4 -7 -4 6 -9 -3 -11 -33 -8 -26 2 -41 0 -41 -7 0 -6 -5 -4 -10 4 -8 12 -10 12
-10 -5 0 -16 -2 -17 -9 -6 -8 13 -12 13 -27 0 -10 -8 -15 -9 -11 -2 10 16 -13
11 -45 -11 -15 -10 -25 -23 -21 -29 3 -6 1 -7 -6 -3 -6 4 -9 11 -7 15 3 4 -1
8 -9 8 -8 0 -15 -4 -15 -8 0 -4 -8 -6 -17 -4 -10 1 -26 -7 -36 -19 -10 -11
-16 -15 -12 -8 4 7 -9 4 -30 -8 -19 -11 -42 -20 -50 -20 -8 0 -15 -6 -15 -12
0 -9 -4 -8 -10 2 -7 10 -10 11 -10 2 0 -8 -12 -12 -36 -10 -22 1 -39 -3 -44
-12 -7 -10 -10 -11 -10 -2 0 6 -5 12 -11 12 -5 0 -8 -4 -5 -8 3 -5 -1 -9 -9
-9 -8 0 -15 5 -15 10 0 6 -5 5 -13 -1 -8 -7 -17 -6 -30 3 -14 10 -15 14 -5 18
8 4 7 6 -4 6 -15 1 -16 5 -8 27 6 14 6 23 1 20 -4 -3 -13 6 -19 19 -10 21 -9
23 6 18 14 -6 15 -4 5 8 -6 8 -11 18 -11 22 0 5 -4 12 -8 15 -4 4 -4 1 1 -7 5
-10 4 -12 -4 -7 -6 4 -8 13 -4 19 4 7 8 24 8 40 1 20 -3 26 -14 22 -10 -4 -9
1 5 16 11 14 13 19 4 14 -13 -8 -13 -7 -1 8 10 13 10 17 1 17 -10 0 -10 3 0
15 10 12 10 15 0 15 -9 0 -9 4 1 17 8 10 9 14 2 10 -8 -5 -11 0 -10 13 1 11 6
20 12 20 5 0 3 5 -5 10 -10 7 -11 10 -2 10 8 0 12 12 10 35 -1 19 -6 35 -11
35 -5 0 -3 8 4 17 8 10 9 14 2 10 -7 -5 -12 -1 -12 10 -1 40 -5 53 -14 53 -5
0 -4 7 3 15 9 11 9 15 1 15 -8 0 -9 5 -1 19 8 16 6 22 -7 31 -14 9 -14 10 -2
7 9 -3 16 1 16 9 0 8 -5 14 -10 14 -5 0 -4 6 2 14 7 8 8 17 3 20 -5 3 -9 27
-8 53 1 27 -1 65 -5 86 -3 20 -4 37 0 37 3 0 6 29 6 64 0 35 -3 62 -7 60 -3
-2 -4 5 -1 16 3 11 10 17 15 14 6 -4 5 4 -2 16 -6 12 -9 24 -6 28 3 3 6 -1 6
-9 1 -8 7 1 15 20 18 39 18 44 5 36 -5 -3 -10 -1 -10 6 0 6 8 9 18 7 11 -3 19
0 19 8 0 7 -9 15 -19 17 -10 3 -18 1 -18 -5 0 -5 -4 -7 -9 -3 -5 3 -12 1 -16
-5 -4 -6 -11 -8 -16 -5 -5 4 -9 -2 -9 -12 0 -15 -2 -15 -9 -4 -7 12 -13 12
-24 3 -7 -7 -17 -9 -20 -5 -4 3 -7 1 -7 -5 0 -7 -5 -12 -11 -12 -5 0 -7 6 -3
13 4 6 -2 3 -14 -7 -12 -11 -22 -15 -22 -11 0 5 -5 4 -12 -3 -7 -7 -17 -12
-22 -12 -6 0 -4 5 4 11 12 9 11 10 -7 6 -13 -3 -23 -2 -23 2 0 4 -10 18 -22
31 -19 20 -20 23 -4 17 15 -6 17 -5 8 6 -7 8 -9 17 -5 20 3 4 1 7 -7 7 -10 0
-10 4 1 17 12 15 12 16 -1 8 -13 -8 -13 -7 -1 8 12 15 11 17 -5 17 -15 0 -16
2 -5 9 16 11 23 108 9 117 -5 3 -4 12 3 20 9 11 8 14 -2 14 -9 0 -10 3 -4 8
14 10 14 52 1 52 -6 0 -4 5 4 10 13 9 13 10 0 10 -12 0 -12 2 -2 9 10 6 7 10
-11 13 -19 4 -24 1 -20 -10 5 -11 1 -13 -16 -7 -15 4 -21 3 -19 -7 2 -8 -4
-12 -16 -10 -10 2 -16 0 -13 -5 3 -4 -7 -17 -22 -27 l-26 -20 20 24 20 23 -21
-11 c-12 -6 -25 -8 -29 -4 -5 4 -5 2 -2 -4 4 -7 -1 -15 -10 -19 -10 -3 -19 -1
-21 4 -2 6 -8 11 -13 11 -6 0 -8 -4 -5 -8 3 -5 -5 -8 -17 -7 -12 1 -23 9 -25
18 -2 9 -11 17 -20 17 -15 0 -15 2 -2 10 13 8 12 10 -4 10 -13 0 -16 5 -11 18
4 9 7 24 6 32 -1 8 -2 30 -2 48 0 20 -4 30 -11 26 -6 -4 -5 3 2 16 8 15 8 20
1 16 -6 -4 -11 -1 -11 6 0 7 -11 23 -24 35 -18 17 -26 20 -36 10 -9 -8 -11 -8
-7 -1 4 7 0 15 -9 18 -10 4 -13 2 -9 -7 4 -6 -1 -3 -10 8 -9 11 -21 19 -27 17
-7 -2 -6 3 1 12 11 13 10 17 -3 22 -10 4 -15 13 -12 20 3 7 -4 16 -15 19 -10
4 -17 10 -15 14 7 10 -43 111 -54 111 -6 0 -10 7 -10 15 0 8 -5 15 -10 15 -6
0 -9 3 -9 8 1 4 1 15 0 26 -1 14 -4 16 -15 7 -11 -9 -12 -6 -8 16 4 21 2 25
-10 20 -12 -4 -14 0 -11 14 3 10 0 19 -6 19 -6 0 -11 9 -11 20 0 11 -6 20 -14
20 -9 0 -12 7 -9 20 6 21 -20 53 -33 42 -5 -4 -3 0 4 9 9 13 8 20 -9 37 -11
12 -15 22 -8 22 7 0 1 9 -12 21 -13 11 -23 29 -21 39 2 10 -7 25 -20 34 -12 9
-17 16 -10 16 6 0 12 5 12 11 0 5 -4 8 -9 5 -5 -3 -12 1 -15 10 -4 10 -2 13 7
9 6 -4 4 0 -5 8 -10 8 -15 17 -11 21 4 3 -2 13 -13 22 -10 8 -13 13 -6 9 6 -3
12 -1 12 4 0 6 -4 11 -9 11 -5 0 -12 7 -15 16 -3 8 -2 12 4 9 6 -3 7 1 4 9 -3
9 -10 16 -15 16 -5 0 -9 9 -9 20 0 11 -4 20 -9 20 -5 0 -8 8 -7 18 4 24 -15
51 -31 45 -7 -3 -13 0 -13 6 0 6 7 11 16 11 13 0 14 3 4 15 -7 8 -16 13 -20
10 -5 -3 -6 5 -2 17 4 15 2 19 -7 14 -8 -5 -12 -3 -10 5 3 24 -1 39 -9 39 -4
0 -8 -22 -7 -50z m240 -480 c3 -5 1 -10 -4 -10 -6 0 -11 5 -11 10 0 6 2 10 4
10 3 0 8 -4 11 -10z m-545 -540 c0 -5 -5 -10 -11 -10 -5 0 -7 5 -4 10 3 6 8
10 11 10 2 0 4 -4 4 -10z m-440 -480 c0 -5 -2 -10 -4 -10 -3 0 -8 5 -11 10 -3
6 -1 10 4 10 6 0 11 -4 11 -10z m1877 -195 c0 -8 -4 -12 -9 -9 -5 3 -6 10 -3
15 9 13 12 11 12 -6z m-2203 -603 c3 -5 -1 -9 -9 -9 -8 0 -12 4 -9 9 3 4 7 8
9 8 2 0 6 -4 9 -8z m3286 -156 c0 -3 -4 -8 -10 -11 -5 -3 -10 -1 -10 4 0 6 5
11 10 11 6 0 10 -2 10 -4z m110 -1451 c-7 -8 -17 -15 -22 -15 -11 0 14 29 26
30 5 0 3 -7 -4 -15z m-65 -44 c3 -5 2 -12 -3 -15 -5 -3 -9 1 -9 9 0 17 3 19
12 6z m-2065 -491 c0 -5 -2 -10 -4 -10 -3 0 -8 5 -11 10 -3 6 -1 10 4 10 6 0
11 -4 11 -10z m-1850 -14 c0 -3 -4 -8 -10 -11 -5 -3 -10 -1 -10 4 0 6 5 11 10
11 6 0 10 -2 10 -4z m2321 -33 c13 -16 12 -17 -3 -4 -17 13 -22 21 -14 21 2 0
10 -8 17 -17z m164 -121 c-3 -3 -11 0 -18 7 -9 10 -8 11 6 5 10 -3 15 -9 12
-12z m35 -32 c0 -5 -2 -10 -4 -10 -3 0 -8 5 -11 10 -3 6 -1 10 4 10 6 0 11 -4
11 -10z m24 -26 c3 -8 2 -12 -4 -9 -6 3 -10 10 -10 16 0 14 7 11 14 -7z m1247
-1 c13 -16 12 -17 -3 -4 -10 7 -18 15 -18 17 0 8 8 3 21 -13z m-844 -298 c0
-8 -4 -12 -9 -9 -5 3 -6 10 -3 15 9 13 12 11 12 -6z"/>
<path d="M2355 4560 c-3 -5 -1 -10 4 -10 6 0 11 5 11 10 0 6 -2 10 -4 10 -3 0
-8 -4 -11 -10z"/>
<path d="M1531 3718 c-1 -20 14 -24 25 -6 4 6 3 8 -4 4 -5 -3 -13 0 -15 6 -3
8 -6 6 -6 -4z"/>
<path d="M413 1925 c0 -8 4 -12 9 -9 5 3 6 10 3 15 -9 13 -12 11 -12 -6z"/>
<path d="M287 1283 c-4 -3 -7 -11 -7 -17 0 -6 5 -5 12 2 6 6 9 14 7 17 -3 3
-9 2 -12 -2z"/>
<path d="M35 1260 c-3 -5 -1 -10 4 -10 6 0 11 5 11 10 0 6 -2 10 -4 10 -3 0
-8 -4 -11 -10z"/>
<path d="M490 990 c0 -5 5 -10 11 -10 5 0 7 5 4 10 -3 6 -8 10 -11 10 -2 0 -4
-4 -4 -10z"/>
<path d="M2623 444 c3 -3 2 -16 -3 -29 -7 -19 -5 -22 14 -22 15 0 22 5 21 16
-1 22 -14 41 -27 41 -6 0 -9 -3 -5 -6z"/>
<path d="M2625 380 c-3 -5 -4 -10 0 -10 3 0 1 -10 -6 -21 -9 -17 -8 -20 2 -14
8 6 10 4 4 -5 -5 -8 -9 -36 -9 -62 1 -28 -4 -48 -10 -48 -7 0 -7 -3 -1 -8 11
-8 16 -42 6 -42 -9 0 -5 -95 4 -111 5 -7 4 -10 -2 -6 -12 8 -22 -12 -16 -30 3
-7 11 -13 19 -13 9 0 12 5 9 10 -3 6 -3 10 2 10 10 0 8 93 -1 109 -4 6 -2 11
3 11 6 0 10 3 10 8 -1 4 0 9 1 12 8 22 7 39 -3 33 -7 -4 -6 1 2 10 10 13 10
17 1 17 -9 0 -9 4 1 17 10 11 10 14 2 9 -7 -4 -13 -3 -13 3 0 5 6 12 13 15 10
5 10 7 0 12 -19 9 -16 27 3 20 14 -5 15 -4 4 9 -8 10 -9 15 -1 15 6 0 11 5 11
11 0 5 -4 8 -9 5 -5 -4 -7 2 -4 13 5 21 -12 37 -22 21z"/>
</g>
</svg>
